<svg xmlns="http://www.w3.org/2000/svg" x="0px" y="0px" viewBox="11.713943481445312 6.783984661102295 24.57210922241211 34.43204879760742" enable-background="new 0 0 48 48">
<g>
	<g>
		
			<path fill="none" stroke="currentColor" stroke-width="0.5" stroke-linecap="round" stroke-linejoin="round" stroke-miterlimit="10" d="    M35.28426,15.11553c0.48296,0.5146,0.75178,1.19384,0.75178,1.89957l0.00001,19.17081c0,2.63998-2.09132,4.78011-4.6711,4.78011    l-14.72989,0.00001c-2.57978,0-4.67111-2.14013-4.67111-4.78011l-0.00001-24.37183c0-2.63998,2.09132-4.78011,4.6711-4.78011    l9.95522,0c0.76672,0,1.49929,0.31714,2.02399,0.8762L35.28426,15.11553z"/>
		
			<path fill="none" stroke="currentColor" stroke-width="0.5" stroke-linecap="round" stroke-linejoin="round" stroke-miterlimit="10" d="    M34.88787,16.52954l-5.08669,0c-1.50706,0-2.72877-1.22171-2.72878-2.72877l0-5.64499c0-0.68031,0.83442-1.00752,1.29686-0.50855    l7.06733,7.62562C35.88041,15.75172,35.54078,16.52954,34.88787,16.52954z"/>
	</g>
</g>
<g>
	<path fill="none" stroke="currentColor" stroke-width="0.5" stroke-linecap="round" stroke-linejoin="round" stroke-miterlimit="10" d="   M22.45123,18.09666c1.54375-0.67539,2.7921,1.40897,1.94316,4.13439c-0.67529,2.16795-3.97631,10.23124-5.54008,11.58177   c-1.56377,1.35053-3.59692-0.82688-1.81913-2.3566c1.30318-1.12134,3.81687-1.43494,6.8114-1.89697   c2.99454-0.46202,6.29461-0.66635,7.28686,0.40859c1.35769,1.47083-0.10336,3.3902-2.39794,1.90182   c-1.96132-1.27221-5.9438-7.75154-6.69771-9.0598C20.98352,20.9804,21.12823,18.67548,22.45123,18.09666z"/>
</g>
</svg>